<?xml version="1.0" encoding="UTF-8" standalone="no"?>
<!DOCTYPE svg PUBLIC "-//W3C//DTD SVG 1.1//EN" "http://www.w3.org/Graphics/SVG/1.1/DTD/svg11.dtd">
<svg xmlns="http://www.w3.org/2000/svg" version="1.1" viewBox="0.00 0.00 1286.00 1284.00">
<g stroke-width="2.00" fill="none" stroke-linecap="butt">
<path stroke="#8a3a28" vector-effect="non-scaling-stroke" d="
  M 1074.56 608.72
  L 1206.75 608.72
  A 0.83 0.82 -1.6 0 0 1207.58 607.85
  C 1191.47 345.97 998.08 130.38 740.78 83.93"
/>
<path stroke="#9b4228" vector-effect="non-scaling-stroke" d="
  M 740.78 83.93
  Q 653.98 68.91 567.74 80.22
  C 301.99 115.08 97.04 333.53 76.81 600.42
  Q 76.52 604.27 76.51 608.26
  Q 76.51 608.75 77.00 608.75
  L 444.01 608.75
  A 0.97 0.96 -85.0 0 0 444.96 607.95
  C 454.07 555.05 484.16 508.09 528.30 477.56
  C 648.82 394.21 813.93 464.74 839.14 608.14
  A 0.73 0.72 84.7 0 0 839.85 608.74
  L 1074.56 608.72"
/>
<path stroke="#ee3500" vector-effect="non-scaling-stroke" d="
  M 740.78 83.93
  Q 741.29 84.25 741.44 84.61
  Q 741.61 85.03 742.02 85.25
  C 825.74 130.72 899.44 194.28 955.16 271.59
  Q 1063.50 421.89 1074.56 608.72"
/>
<path stroke="#9ba3a7" vector-effect="non-scaling-stroke" d="
  M 775.22 641.97
  A 133.23 133.23 0.0 0 0 641.99 508.74
  A 133.23 133.23 0.0 0 0 508.76 641.97
  A 133.23 133.23 0.0 0 0 641.99 775.20
  A 133.23 133.23 0.0 0 0 775.22 641.97"
/>
<path stroke="#839096" vector-effect="non-scaling-stroke" d="
  M 741.30 1199.85
  C 998.54 1153.86 1191.49 936.96 1207.59 675.91
  A 0.62 0.61 1.7 0 0 1206.97 675.26
  L 1074.48 675.26"
/>
<path stroke="#9ba3a7" vector-effect="non-scaling-stroke" d="
  M 1074.48 675.26
  L 839.67 675.26
  A 0.57 0.56 4.8 0 0 839.11 675.73
  C 822.10 771.13 739.19 842.89 641.25 841.97
  C 544.02 841.05 461.92 771.90 444.97 676.05
  A 0.97 0.96 85.0 0 0 444.02 675.25
  L 76.60 675.25
  A 0.34 0.33 88.4 0 0 76.27 675.61
  Q 87.03 839.25 181.41 971.62
  C 307.93 1149.07 526.53 1237.80 741.30 1199.85"
/>
<path stroke="#e7ecee" vector-effect="non-scaling-stroke" d="
  M 1074.48 675.26
  C 1062.08 897.70 936.86 1092.40 741.89 1198.75
  C 741.36 1199.04 741.42 1199.30 741.30 1199.85"
/>
<path stroke="#9ba3a7" vector-effect="non-scaling-stroke" d="
  M 708.58 641.98
  A 66.59 66.59 0.0 0 0 641.99 575.39
  A 66.59 66.59 0.0 0 0 575.40 641.98
  A 66.59 66.59 0.0 0 0 641.99 708.57
  A 66.59 66.59 0.0 0 0 708.58 641.98"
/>
</g>
<path fill="#37474f" d="
  M 1275.32 641.96
  A 633.33 633.33 0.0 0 1 641.99 1275.29
  A 633.33 633.33 0.0 0 1 8.66 641.96
  A 633.33 633.33 0.0 0 1 641.99 8.63
  A 633.33 633.33 0.0 0 1 1275.32 641.96
  Z
  M 1074.56 608.72
  L 1206.75 608.72
  A 0.83 0.82 -1.6 0 0 1207.58 607.85
  C 1191.47 345.97 998.08 130.38 740.78 83.93
  Q 653.98 68.91 567.74 80.22
  C 301.99 115.08 97.04 333.53 76.81 600.42
  Q 76.52 604.27 76.51 608.26
  Q 76.51 608.75 77.00 608.75
  L 444.01 608.75
  A 0.97 0.96 -85.0 0 0 444.96 607.95
  C 454.07 555.05 484.16 508.09 528.30 477.56
  C 648.82 394.21 813.93 464.74 839.14 608.14
  A 0.73 0.72 84.7 0 0 839.85 608.74
  L 1074.56 608.72
  Z
  M 775.22 641.97
  A 133.23 133.23 0.0 0 0 641.99 508.74
  A 133.23 133.23 0.0 0 0 508.76 641.97
  A 133.23 133.23 0.0 0 0 641.99 775.20
  A 133.23 133.23 0.0 0 0 775.22 641.97
  Z
  M 741.30 1199.85
  C 998.54 1153.86 1191.49 936.96 1207.59 675.91
  A 0.62 0.61 1.7 0 0 1206.97 675.26
  L 1074.48 675.26
  L 839.67 675.26
  A 0.57 0.56 4.8 0 0 839.11 675.73
  C 822.10 771.13 739.19 842.89 641.25 841.97
  C 544.02 841.05 461.92 771.90 444.97 676.05
  A 0.97 0.96 85.0 0 0 444.02 675.25
  L 76.60 675.25
  A 0.34 0.33 88.4 0 0 76.27 675.61
  Q 87.03 839.25 181.41 971.62
  C 307.93 1149.07 526.53 1237.80 741.30 1199.85
  Z"
/>
<path fill="#ff3d00" d="
  M 740.78 83.93
  Q 741.29 84.25 741.44 84.61
  Q 741.61 85.03 742.02 85.25
  C 825.74 130.72 899.44 194.28 955.16 271.59
  Q 1063.50 421.89 1074.56 608.72
  L 839.85 608.74
  A 0.73 0.72 84.7 0 1 839.14 608.14
  C 813.93 464.74 648.82 394.21 528.30 477.56
  C 484.16 508.09 454.07 555.05 444.96 607.95
  A 0.97 0.96 -85.0 0 1 444.01 608.75
  L 77.00 608.75
  Q 76.51 608.75 76.51 608.26
  Q 76.52 604.27 76.81 600.42
  C 97.04 333.53 301.99 115.08 567.74 80.22
  Q 653.98 68.91 740.78 83.93
  Z"
/>
<path fill="#dd2c00" d="
  M 740.78 83.93
  C 998.08 130.38 1191.47 345.97 1207.58 607.85
  A 0.83 0.82 -1.6 0 1 1206.75 608.72
  L 1074.56 608.72
  Q 1063.50 421.89 955.16 271.59
  C 899.44 194.28 825.74 130.72 742.02 85.25
  Q 741.61 85.03 741.44 84.61
  Q 741.29 84.25 740.78 83.93
  Z"
/>
<path fill="#ffffff" d="
  M 775.22 641.97
  A 133.23 133.23 0.0 0 1 641.99 775.20
  A 133.23 133.23 0.0 0 1 508.76 641.97
  A 133.23 133.23 0.0 0 1 641.99 508.74
  A 133.23 133.23 0.0 0 1 775.22 641.97
  Z
  M 708.58 641.98
  A 66.59 66.59 0.0 0 0 641.99 575.39
  A 66.59 66.59 0.0 0 0 575.40 641.98
  A 66.59 66.59 0.0 0 0 641.99 708.57
  A 66.59 66.59 0.0 0 0 708.58 641.98
  Z"
/>
<circle fill="#37474f" cx="641.99" cy="641.98" r="66.59"/>
<path fill="#ffffff" d="
  M 1074.48 675.26
  C 1062.08 897.70 936.86 1092.40 741.89 1198.75
  C 741.36 1199.04 741.42 1199.30 741.30 1199.85
  C 526.53 1237.80 307.93 1149.07 181.41 971.62
  Q 87.03 839.25 76.27 675.61
  A 0.34 0.33 88.4 0 1 76.60 675.25
  L 444.02 675.25
  A 0.97 0.96 85.0 0 1 444.97 676.05
  C 461.92 771.90 544.02 841.05 641.25 841.97
  C 739.19 842.89 822.10 771.13 839.11 675.73
  A 0.57 0.56 4.8 0 1 839.67 675.26
  L 1074.48 675.26
  Z"
/>
<path fill="#cfd8dc" d="
  M 1074.48 675.26
  L 1206.97 675.26
  A 0.62 0.61 1.7 0 1 1207.59 675.91
  C 1191.49 936.96 998.54 1153.86 741.30 1199.85
  C 741.42 1199.30 741.36 1199.04 741.89 1198.75
  C 936.86 1092.40 1062.08 897.70 1074.48 675.26
  Z"
/>
</svg>
